<svg xmlns="http://www.w3.org/2000/svg" width="512" height="512" viewBox="0 0 512 512" fill="none">
<path d="M 256.00,32.00 C 268.96,35.11 323.86,47.56 333.78,50.67 C 315.03,46.00 352.26,56.89 357.63,60.00 C 345.10,55.33 366.00,66.22 366.00,69.33 C 361.60,64.67 363.00,75.56 357.63,78.67 C 362.03,74.00 343.70,84.89 333.78,88.00 C 346.31,83.33 311.06,94.22 298.10,97.33 C 316.84,92.67 270.03,103.56 256.00,106.67 C 278.12,102.00 226.87,112.89 213.90,116.00 C 236.02,111.33 188.14,122.22 178.22,125.33 C 196.97,120.67 159.74,131.56 154.37,134.67 C 166.90,130.00 146.00,140.89 146.00,144.00 C 150.40,139.33 149.00,150.22 154.37,153.33 C 149.97,148.67 168.30,159.56 178.22,162.67 C 165.69,158.00 200.94,168.89 213.90,172.00 C 195.16,167.33 241.97,178.22 256.00,181.33 C 233.88,176.67 285.13,187.56 298.10,190.67 C 275.98,186.00 323.86,196.89 333.78,200.00 C 315.03,195.33 352.26,206.22 357.63,209.33 C 345.10,204.67 366.00,215.56 366.00,218.67 C 361.60,214.00 363.00,224.89 357.63,228.00 C 362.03,223.33 343.70,234.22 333.78,237.33 C 346.31,232.67 311.06,243.56 298.10,246.67 C 316.84,242.00 270.03,252.89 256.00,256.00 C 278.12,251.33 226.87,262.22 213.90,265.33 C 236.02,260.67 188.14,271.56 178.22,274.67 C 196.97,270.00 159.74,280.89 154.37,284.00 C 166.90,279.33 146.00,290.22 146.00,293.33 C 150.40,288.67 149.00,299.56 154.37,302.67 C 149.97,298.00 168.30,308.89 178.22,312.00 C 165.69,307.33 200.94,318.22 213.90,321.33 C 195.16,316.67 241.97,327.56 256.00,330.67 C 233.88,326.00 285.13,336.89 298.10,340.00 C 275.98,335.33 323.86,346.22 333.78,349.33 C 315.03,344.67 352.26,355.56 357.63,358.67 C 345.10,354.00 366.00,364.89 366.00,368.00 C 361.60,363.33 363.00,374.22 357.63,377.33 C 362.03,372.67 343.70,383.56 333.78,386.67 C 346.31,382.00 311.06,392.89 298.10,396.00 C 316.84,391.33 270.03,402.22 256.00,405.33 C 278.12,400.67 226.87,411.56 213.90,414.67 C 236.02,410.00 188.14,420.89 178.22,424.00 C 196.97,419.33 159.74,430.22 154.37,433.33 C 166.90,428.67 146.00,439.56 146.00,442.67 C 150.40,438.00 149.00,448.89 154.37,452.00 C 149.97,447.33 168.30,458.22 178.22,461.33 C 165.69,456.67 200.94,467.56 213.90,470.67 C 195.16,466.00 248.98,478.44 256.00,480.00" stroke="#FFFFFF" stroke-width="16" stroke-linecap="round" stroke-linejoin="round" fill="none" />
<path d="M 256.00,32.00 C 243.04,35.11 188.14,47.56 178.22,50.67 C 196.97,46.00 159.74,56.89 154.37,60.00 C 166.90,55.33 146.00,66.22 146.00,69.33 C 150.40,64.67 149.00,75.56 154.37,78.67 C 149.97,74.00 168.30,84.89 178.22,88.00 C 165.69,83.33 200.94,94.22 213.90,97.33 C 195.16,92.67 241.97,103.56 256.00,106.67 C 233.88,102.00 285.13,112.89 298.10,116.00 C 275.98,111.33 323.86,122.22 333.78,125.33 C 315.03,120.67 352.26,131.56 357.63,134.67 C 345.10,130.00 366.00,140.89 366.00,144.00 C 361.60,139.33 363.00,150.22 357.63,153.33 C 362.03,148.67 343.70,159.56 333.78,162.67 C 346.31,158.00 311.06,168.89 298.10,172.00 C 316.84,167.33 270.03,178.22 256.00,181.33 C 278.12,176.67 226.87,187.56 213.90,190.67 C 236.02,186.00 188.14,196.89 178.22,200.00 C 196.97,195.33 159.74,206.22 154.37,209.33 C 166.90,204.67 146.00,215.56 146.00,218.67 C 150.40,214.00 149.00,224.89 154.37,228.00 C 149.97,223.33 168.30,234.22 178.22,237.33 C 165.69,232.67 200.94,243.56 213.90,246.67 C 195.16,242.00 241.97,252.89 256.00,256.00 C 233.88,251.33 285.13,262.22 298.10,265.33 C 275.98,260.67 323.86,271.56 333.78,274.67 C 315.03,270.00 352.26,280.89 357.63,284.00 C 345.10,279.33 366.00,290.22 366.00,293.33 C 361.60,288.67 363.00,299.56 357.63,302.67 C 362.03,298.00 343.70,308.89 333.78,312.00 C 346.31,307.33 311.06,318.22 298.10,321.33 C 316.84,316.67 270.03,327.56 256.00,330.67 C 278.12,326.00 226.87,336.89 213.90,340.00 C 236.02,335.33 188.14,346.22 178.22,349.33 C 196.97,344.67 159.74,355.56 154.37,358.67 C 166.90,354.00 146.00,364.89 146.00,368.00 C 150.40,363.33 149.00,374.22 154.37,377.33 C 149.97,372.67 168.30,383.56 178.22,386.67 C 165.69,382.00 200.94,392.89 213.90,396.00 C 195.16,391.33 241.97,402.22 256.00,405.33 C 233.88,400.67 285.13,411.56 298.10,414.67 C 275.98,410.00 323.86,420.89 333.78,424.00 C 315.03,419.33 352.26,430.22 357.63,433.33 C 345.10,428.67 366.00,439.56 366.00,442.67 C 361.60,438.00 363.00,448.89 357.63,452.00 C 362.03,447.33 343.70,458.22 333.78,461.33 C 346.31,456.67 311.06,467.56 298.10,470.67 C 316.84,466.00 263.02,478.44 256.00,480.00" stroke="#FFFFFF" stroke-width="16" stroke-linecap="round" stroke-linejoin="round" fill="none" />
<line x1="333.78" y1="88.00" x2="178.22" y2="88.00" stroke="#FFFFFF" stroke-width="7.20" stroke-linecap="round" />
<line x1="178.22" y1="125.33" x2="333.78" y2="125.33" stroke="#FFFFFF" stroke-width="7.20" stroke-linecap="round" />
<line x1="178.22" y1="162.67" x2="333.78" y2="162.67" stroke="#FFFFFF" stroke-width="7.20" stroke-linecap="round" />
<line x1="333.78" y1="200.00" x2="178.22" y2="200.00" stroke="#FFFFFF" stroke-width="7.20" stroke-linecap="round" />
<line x1="333.78" y1="237.33" x2="178.22" y2="237.33" stroke="#FFFFFF" stroke-width="7.20" stroke-linecap="round" />
<line x1="178.22" y1="274.67" x2="333.78" y2="274.67" stroke="#FFFFFF" stroke-width="7.20" stroke-linecap="round" />
<line x1="178.22" y1="312.00" x2="333.78" y2="312.00" stroke="#FFFFFF" stroke-width="7.20" stroke-linecap="round" />
<line x1="333.78" y1="349.33" x2="178.22" y2="349.33" stroke="#FFFFFF" stroke-width="7.20" stroke-linecap="round" />
<line x1="333.78" y1="386.67" x2="178.22" y2="386.67" stroke="#FFFFFF" stroke-width="7.20" stroke-linecap="round" />
<line x1="178.22" y1="424.00" x2="333.78" y2="424.00" stroke="#FFFFFF" stroke-width="7.20" stroke-linecap="round" />
<line x1="178.22" y1="461.33" x2="333.78" y2="461.33" stroke="#FFFFFF" stroke-width="7.20" stroke-linecap="round" />
</svg>